PathFileType	4	(X/Y/Z)	/Users/itak/Documents/Research/Walk-IL/dataset/trc/00567_00009.trc
DataRate	CameraRate	NumFrames	NumMarkers	Units	OrigDataRate	OrigDataStartFrame	OrigNumFrames
100.000000	100.000000	4	53	mm	100.000000	391	447
Frame#	Time	RPSI			LPSI			L3			STRN			T10			C7			CLAV			RBAK			LBAK			LSHO			LUPA			LAEL			LAOL			LWTS			LWPS			LFRA			LHPS			LHTS			RSHO			RUPA			RAEL			RAOL			RWTS			RWPS			RFRA			RIFD			RHTS			RHPS			RBHD			LFHD			RFHD			LBHD			LHIP			RHIP			RASI			LASI			LKNE			LTHI			LANK			LTIP			LTOE			LMT1			LMT5			LHEE			RKNE			RTHI			RANK			RTIP			RTOE			RMT1			RMT5			RHEE			LIFD			
		X1	Y1	Z1	X2	Y2	Z2	X3	Y3	Z3	X4	Y4	Z4	X5	Y5	Z5	X6	Y6	Z6	X7	Y7	Z7	X8	Y8	Z8	X9	Y9	Z9	X10	Y10	Z10	X11	Y11	Z11	X12	Y12	Z12	X13	Y13	Z13	X14	Y14	Z14	X15	Y15	Z15	X16	Y16	Z16	X17	Y17	Z17	X18	Y18	Z18	X19	Y19	Z19	X20	Y20	Z20	X21	Y21	Z21	X22	Y22	Z22	X23	Y23	Z23	X24	Y24	Z24	X25	Y25	Z25	X26	Y26	Z26	X27	Y27	Z27	X28	Y28	Z28	X29	Y29	Z29	X30	Y30	Z30	X31	Y31	Z31	X32	Y32	Z32	X33	Y33	Z33	X34	Y34	Z34	X35	Y35	Z35	X36	Y36	Z36	X37	Y37	Z37	X38	Y38	Z38	X39	Y39	Z39	X40	Y40	Z40	X41	Y41	Z41	X42	Y42	Z42	X43	Y43	Z43	X44	Y44	Z44	X45	Y45	Z45	X46	Y46	Z46	X47	Y47	Z47	X48	Y48	Z48	X49	Y49	Z49	X50	Y50	Z50	X51	Y51	Z51	X52	Y52	Z52	X53	Y53	Z53	

392	3.91	225.9567413330078	1017.256469726562	1117.322631835938	359.3871154785156	1024.13525390625	1129.833251953125	295.6836547851562	1111.885620117188	1127.911376953125	289.7020263671875	1303.566528320312	1356.377319335938	299.1437072753906	1237.629150390625	1115.048217773438	284.9757690429688	1513.734741210938	1160.456665039062	291.6088562011719	1414.170043945312	1336.123413085938	200.5193634033203	1386.796142578125	1087.60791015625	376.8792114257812	1460.799682617188	1128.25537109375	459.2550964355469	1484.303100585938	1227.238159179688	535.9229736328125	1355.771606445312	1212.62060546875	556.1821899414062	1134.517578125	1218.301025390625	497.2378234863281	1131.538818359375	1136.508422851562	516.8377685546875	885.9965209960938	1295.484375	583.5831909179688	866.5421142578125	1242.578735351562	564.8421020507812	1047.093017578125	1234.363159179688	574.9572143554688	805.7869873046875	1244.757690429688	536.2228393554688	805.8224487304688	1300.635620117188	127.120719909668	1477.140747070312	1214.6552734375	57.7801513671875	1412.462524414062	1195.489868164062	7.645562648773193	1124.175659179688	1190.54931640625	40.13523101806641	1105.817749023438	1137.869018554688	27.14159393310547	901.6781005859375	1325.45166015625	-36.19303894042969	883.5912475585938	1273.903076171875	-0.7434680461883545	1068.842163085938	1198.71923828125	18.06840515136719	728.396728515625	1331.94091796875	6.424556255340576	810.6431884765625	1350.545654296875	-36.3485107421875	809.4501342773438	1290.062622070312	213.5445861816406	1695.528198242188	1250.830932617188	344.2850646972656	1705.694458007812	1411.178100585938	202.0861968994141	1702.09375	1390.51171875	376.5490112304688	1697.745239257812	1281.69775390625	478.3305358886719	946.7830200195312	1267.2646484375	89.25767517089844	944.54296875	1228.125732421875	144.6943511962891	976.7529907226562	1320.56689453125	420.61279296875	972.1343994140625	1342.794921875	415.5624694824219	501.3865356445312	1280.881713867188	453.1555480957031	666.2493896484375	1290.128540039062	420.2676086425781	37.87914657592773	1182.699584960938	427.4312133789062	258.692138671875	1210.342041015625	336.6615905761719	44.98512268066406	1387.338623046875	310.4971618652344	48.86977005004883	1310.44287109375	420.6361389160156	40.14606857299805	1305.69921875	372.3177185058594	40.62781143188477	1109.230834960938	152.5670318603516	499.998046875	1251.70068359375	103.5228424072266	786.7286987304688	1269.515747070312	185.1797637939453	43.46261215209961	1138.388671875	171.2687530517578	357.3362731933594	1241.470458984375	221.8436126708984	43.38894271850586	1359.94189453125	264.5846557617188	40.47400665283203	1293.641845703125	163.6034698486328	45.37227249145508	1270.943237304688	237.3540649414062	33.29952239990234	1083.563598632812	513.9232177734375	716.0160522460938	1269.479858398438	
393	3.92	225.8052825927734	1017.314270019531	1117.784545898438	359.1606140136719	1024.165161132812	1130.240478515625	295.5433654785156	1111.856689453125	1128.278198242188	289.7832336425781	1303.60498046875	1356.706176757812	298.9756164550781	1237.544799804688	1115.39697265625	284.7903137207031	1513.695922851562	1160.606811523438	291.6930847167969	1414.200439453125	1336.283081054688	200.3994903564453	1386.69091796875	1087.830200195312	376.62109375	1460.778442382812	1128.350830078125	459.1268920898438	1484.39599609375	1227.213989257812	535.896484375	1355.940185546875	1212.4384765625	556.3943481445312	1134.735229492188	1218.24365234375	497.346923828125	1131.595947265625	1136.568603515625	517.286865234375	886.2743530273438	1295.881469726562	584.0081787109375	866.79248046875	1242.897216796875	565.1337280273438	1047.331665039062	1234.425903320312	575.4347534179688	806.05419921875	1245.235229492188	536.8582763671875	806.2305908203125	1301.218627929688	127.0178298950195	1477.010131835938	1214.973999023438	57.75803375244141	1412.23388671875	1195.822021484375	8.200617790222168	1123.8701171875	1190.53515625	40.60540771484375	1105.654541015625	1137.927001953125	27.88906097412109	901.0921630859375	1325.0849609375	-35.45259094238281	883.0226440429688	1273.552490234375	-0.2945069968700409	1068.536010742188	1198.78515625	19.22796821594238	727.7211303710938	1331.123168945312	7.417408466339111	809.9479370117188	1349.9384765625	-35.37919998168945	808.8172607421875	1289.485473632812	213.3310394287109	1695.457397460938	1251.080444335938	344.1649475097656	1705.685302734375	1411.361694335938	201.9340667724609	1701.993408203125	1390.756469726562	376.3332824707031	1697.843872070312	1281.876098632812	478.0602111816406	946.5639038085938	1267.347778320312	89.186279296875	944.5925903320312	1228.523559570312	144.6835632324219	976.7300415039062	1321.0380859375	420.6025085449219	972.0711059570312	1343.07080078125	415.5829467773438	501.3620300292969	1280.492431640625	453.1366882324219	666.2074584960938	1290.033813476562	420.2786560058594	37.82041931152344	1182.66357421875	427.4857482910156	258.68408203125	1210.104736328125	336.6842956542969	45.00222396850586	1387.283081054688	310.504638671875	48.88260269165039	1310.423461914062	420.6570739746094	40.14390182495117	1305.678344726562	372.33935546875	40.57714462280273	1109.180786132812	152.5589141845703	500.0400695800781	1251.1181640625	102.7305450439453	787.1134033203125	1269.136352539062	185.2073516845703	43.45974731445312	1138.372436523438	171.1777954101562	357.4568176269531	1240.916259765625	221.8235473632812	43.41699600219727	1359.925537109375	264.5908813476562	40.48549270629883	1293.62841796875	163.6270141601562	45.37213897705078	1270.921142578125	237.4089660644531	33.24249267578125	1083.547241210938	514.5167846679688	716.3154907226562	1270.32080078125	
394	3.93	225.6529388427734	1017.372680664062	1118.2177734375	358.9278869628906	1024.211547851562	1130.619262695312	295.3801879882812	1111.823608398438	1128.669555664062	289.8536071777344	1303.637084960938	1357.01416015625	298.7915649414062	1237.461547851562	1115.764770507812	284.6123046875	1513.651611328125	1160.7412109375	291.7671508789062	1414.238159179688	1336.423706054688	200.2723846435547	1386.586547851562	1088.053955078125	376.3670959472656	1460.743896484375	1128.434326171875	459.0015869140625	1484.49560546875	1227.174682617188	535.87646484375	1356.10595703125	1212.2822265625	556.6442260742188	1134.955322265625	1218.280151367188	497.5157165527344	1131.638427734375	1136.698486328125	517.7665405273438	886.5860595703125	1296.4580078125	584.477294921875	867.0621337890625	1243.424194335938	565.4622802734375	1047.587036132812	1234.607299804688	575.9629516601562	806.34521484375	1245.941772460938	537.5240478515625	806.6831665039062	1302.02294921875	126.9292144775391	1476.886352539062	1215.26806640625	57.74375915527344	1412.015380859375	1196.135986328125	8.782364845275879	1123.552856445312	1190.537963867188	41.13005447387695	1105.481323242188	1137.990844726562	28.70260620117188	900.5364379882812	1324.75146484375	-34.63303756713867	882.4486083984375	1273.229736328125	0.202334001660347	1068.221923828125	1198.857299804688	20.51423645019531	727.0776977539062	1330.3896484375	8.500401496887207	809.2854614257812	1349.392456054688	-34.32193756103516	808.1817626953125	1288.962036132812	213.1409912109375	1695.392944335938	1251.291259765625	344.0844421386719	1705.709716796875	1411.50390625	201.8175201416016	1701.921508789062	1390.956298828125	376.1332702636719	1697.939453125	1282.003662109375	477.7702941894531	946.33837890625	1267.364990234375	89.13924407958984	944.6373291015625	1228.917358398438	144.6969146728516	976.7021484375	1321.505493164062	420.5971374511719	972.0150756835938	1343.318115234375	415.6305847167969	501.3546142578125	1280.0537109375	453.1426086425781	666.1807861328125	1289.874633789062	420.2925109863281	37.76580047607422	1182.627197265625	427.5431518554688	258.6815185546875	1209.837036132812	336.7076721191406	45.02209091186523	1387.229858398438	310.5154418945312	48.89547348022461	1310.401733398438	420.6813659667969	40.14060974121094	1305.6572265625	372.3688659667969	40.53021240234375	1109.135131835938	152.5276489257812	500.0762634277344	1250.614013671875	101.8350601196289	787.5783081054688	1268.666870117188	185.2332611083984	43.45926666259766	1138.358520507812	171.0666961669922	357.5733337402344	1240.429443359375	221.8046112060547	43.44326400756836	1359.910766601562	264.5923156738281	40.49678421020508	1293.617309570312	163.6436767578125	45.37154006958008	1270.903076171875	237.4636383056641	33.19859313964844	1083.530883789062	515.1464233398438	716.6524047851562	1271.446655273438	
395	3.94	225.4987182617188	1017.432922363281	1118.622924804688	358.6931457519531	1024.271484375	1130.962280273438	295.191650390625	1111.786376953125	1129.084594726562	289.9114379882812	1303.661254882812	1357.298095703125	298.5975952148438	1237.382446289062	1116.14306640625	284.440185546875	1513.6025390625	1160.865966796875	291.8317565917969	1414.27978515625	1336.55029296875	200.1327056884766	1386.484619140625	1088.285400390625	376.1204223632812	1460.69775390625	1128.507080078125	458.8799133300781	1484.599365234375	1227.123046875	535.8646850585938	1356.267333984375	1212.158081054688	556.9263916015625	1135.174194335938	1218.412353515625	497.7377014160156	1131.665649414062	1136.897338867188	518.2772216796875	886.9277954101562	1297.2041015625	584.9871826171875	867.3497924804688	1244.15087890625	565.8251953125	1047.854858398438	1234.905395507812	576.5391845703125	806.6575317382812	1246.869750976562	538.2133178710938	807.1741333007812	1303.03857421875	126.8523712158203	1476.767333984375	1215.542236328125	57.7352294921875	1411.806762695312	1196.435668945312	9.370391845703125	1123.2265625	1190.56640625	41.69122695922852	1105.301391601562	1138.060791015625	29.58053207397461	900.0147705078125	1324.4541015625	-33.74164581298828	881.8726196289062	1272.939331054688	0.7362309098243713	1067.901000976562	1198.936279296875	21.9210205078125	726.4743041992188	1329.751342773438	9.668332099914551	808.6604614257812	1348.914306640625	-33.17880630493164	807.54541015625	1288.499145507812	212.9738159179688	1695.334106445312	1251.46435546875	344.0405578613281	1705.768920898438	1411.607055664062	201.7343292236328	1701.87646484375	1391.112426757812	375.9492797851562	1698.02978515625	1282.081298828125	477.500732421875	946.135498046875	1267.345703125	89.11426544189453	944.6776123046875	1229.3037109375	144.7319946289062	976.6697998046875	1321.965576171875	420.5980834960938	971.9658813476562	1343.53125	415.700927734375	501.360107421875	1279.584594726562	453.1746826171875	666.164794921875	1289.658447265625	420.3085021972656	37.71569442749023	1182.591430664062	427.6023864746094	258.6846618652344	1209.5458984375	336.7313232421875	45.04451370239258	1387.180053710938	310.5294799804688	48.90796279907227	1310.378051757812	420.7085266113281	40.1359977722168	1305.636108398438	372.4038391113281	40.48566055297852	1109.094848632812	152.481201171875	500.1058959960938	1250.190307617188	100.8998489379883	788.0859375	1268.153686523438	185.2568359375	43.4605712890625	1138.346801757812	170.9465789794922	357.6843566894531	1240.009643554688	221.78857421875	43.46714401245117	1359.897583007812	264.5902404785156	40.50739288330078	1293.608276367188	163.6550598144531	45.37070083618164	1270.88818359375	237.5156860351562	33.16597747802734	1083.515502929688	515.813232421875	717.0210571289062	1272.839477539062	
